<svg width="26" height="34" viewBox="0 0 26 34" fill="none" xmlns="http://www.w3.org/2000/svg">
<path d="M13 0.333984C6.03385 0.333984 0.5 5.99805 0.5 12.834C0.5 17.5215 1.99739 18.9538 10.3308 32.235C11.5677 34.1881 14.3671 34.1881 15.6042 32.235C23.9375 18.9538 25.5 17.5215 25.5 12.834C25.5 5.93294 19.8358 0.333984 13 0.333984ZM13 30.5423C4.66667 17.2611 3.625 16.4148 3.625 12.834C3.625 7.69075 7.79167 3.45898 13 3.45898C18.1433 3.45898 22.375 7.69075 22.375 12.834C22.375 16.4148 21.3333 17.1309 13 30.5423ZM7.79167 12.834C7.79167 15.7636 10.0704 18.0423 13 18.0423C15.8646 18.0423 18.2083 15.7636 18.2083 12.834C18.2083 9.9694 15.8646 7.62565 13 7.62565C10.0704 7.62565 7.79167 9.9694 7.79167 12.834Z" fill="white"/>
</svg>
