<svg width="50" height="110" viewBox="0 0 50 110" fill="none" xmlns="http://www.w3.org/2000/svg">
	<mask id="path-1-inside-1" fill="white">
		<path fill-rule="evenodd" clip-rule="evenodd" d="M25.3788 0C21.404 0 18.1818 3.2222 18.1818 7.19697V60.032C7.68861 62.9998 0 72.6475 0 84.0909C0 97.898 11.1929 109.091 25 109.091C25.0823 109.091 25.1645 109.091 25.2465 109.09C25.2905 109.091 25.3346 109.091 25.3788 109.091C25.5256 109.091 25.6715 109.087 25.8161 109.078C39.2455 108.647 50 97.6249 50 84.0909C50 72.9247 42.6794 63.4683 32.5758 60.2593V7.19697C32.5758 3.22219 29.3536 0 25.3788 0Z" />
	</mask>
	<path d="M18.1818 60.032L18.9983 62.9187L21.1818 62.3011V60.032H18.1818ZM25.2465 109.09L25.3007 106.09L25.2591 106.089L25.2176 106.09L25.2465 109.09ZM25.8161 109.078L25.72 106.079L25.6782 106.081L25.6366 106.083L25.8161 109.078ZM32.5758 60.2593H29.5758V62.4542L31.6676 63.1186L32.5758 60.2593ZM21.1818 7.19697C21.1818 4.87905 23.0609 3 25.3788 3V-3C19.7472 -3 15.1818 1.56535 15.1818 7.19697H21.1818ZM21.1818 60.032V7.19697H15.1818V60.032H21.1818ZM3 84.0909C3 74.025 9.7627 65.5309 18.9983 62.9187L17.3653 57.1452C5.61453 60.4688 -3 71.2699 -3 84.0909H3ZM25 106.091C12.8497 106.091 3 96.2412 3 84.0909H-3C-3 99.5549 9.53603 112.091 25 112.091V106.091ZM25.2176 106.09C25.1451 106.091 25.0726 106.091 25 106.091V112.091C25.0919 112.091 25.1838 112.09 25.2755 112.09L25.2176 106.09ZM25.3788 106.091C25.3526 106.091 25.3265 106.091 25.3007 106.09L25.1924 112.089C25.2545 112.09 25.3167 112.091 25.3788 112.091V106.091ZM25.6366 106.083C25.5517 106.088 25.4658 106.091 25.3788 106.091V112.091C25.5855 112.091 25.7912 112.085 25.9957 112.072L25.6366 106.083ZM47 84.0909C47 96.0003 37.536 105.7 25.72 106.079L25.9123 112.076C40.955 111.594 53 99.2496 53 84.0909H47ZM31.6676 63.1186C40.5617 65.9434 47 74.2692 47 84.0909H53C53 71.5802 44.7971 60.9932 33.4839 57.4001L31.6676 63.1186ZM29.5758 7.19697V60.2593H35.5758V7.19697H29.5758ZM25.3788 3C27.6967 3 29.5758 4.87905 29.5758 7.19697H35.5758C35.5758 1.56534 31.0104 -3 25.3788 -3V3Z" fill="white" mask="url(#path-1-inside-1)" />
	<circle cx="25" cy="85" r="12" fill="white" />
</svg>
